<svg width="120" height="29" viewBox="0 0 120 29" fill="none" xmlns="http://www.w3.org/2000/svg">
<g opacity="0.5">
<g filter="url(#filter0_b_717_3575)">
<rect width="120" height="28.5037" rx="4.75061" fill="white" fill-opacity="0.5"/>
</g>
<path d="M14.5991 7.0288L19.7302 20.3342H17.8281L16.6497 17.2723H10.6465L9.46809 20.3342H7.56599L12.697 7.0288H14.5991ZM11.3702 15.3702H15.9167L13.6527 9.50617L11.3702 15.3702ZM21.8271 10.4526H23.6457V18.5064H28.7396V10.4526H30.5675V20.3342H28.7396V18.6641C28.7211 18.893 28.6592 19.1095 28.5541 19.3136C28.4489 19.5177 28.3128 19.6971 28.1458 19.8517C27.985 20.0002 27.7994 20.1177 27.5891 20.2043C27.3788 20.2909 27.1561 20.3342 26.921 20.3342H23.6457C23.3983 20.3342 23.1632 20.2878 22.9405 20.1951C22.7178 20.0961 22.523 19.9662 22.356 19.8054C22.1952 19.6383 22.0653 19.4435 21.9663 19.2208C21.8735 18.9981 21.8271 18.76 21.8271 18.5064V10.4526ZM33.0356 10.4526H35.448V7.40922H37.2759V10.4526H40.5234V12.2805H37.2759V18.5064H40.5234V20.3342H37.2759C37.0285 20.3342 36.7934 20.2878 36.5707 20.1951C36.348 20.0961 36.1532 19.9662 35.9862 19.8054C35.8191 19.6383 35.6862 19.4435 35.5872 19.2208C35.4944 18.9981 35.448 18.76 35.448 18.5064V12.2805H33.0356V10.4526ZM52.1215 18.5064C52.1215 18.76 52.0721 18.9981 51.9731 19.2208C51.8803 19.4435 51.7504 19.6383 51.5834 19.8054C51.4226 19.9662 51.2308 20.0961 51.0081 20.1951C50.7916 20.2878 50.5566 20.3342 50.303 20.3342H45.3946C45.1472 20.3342 44.9121 20.2878 44.6894 20.1951C44.4667 20.0961 44.2719 19.9662 44.1049 19.8054C43.9441 19.6383 43.8142 19.4435 43.7152 19.2208C43.6224 18.9981 43.576 18.76 43.576 18.5064V12.2805C43.576 12.0268 43.6224 11.7887 43.7152 11.566C43.8142 11.3433 43.9441 11.1516 44.1049 10.9907C44.2719 10.8237 44.4667 10.6938 44.6894 10.601C44.9121 10.5021 45.1472 10.4526 45.3946 10.4526H50.303C50.5566 10.4526 50.7916 10.5021 51.0081 10.601C51.2308 10.6938 51.4226 10.8237 51.5834 10.9907C51.7504 11.1516 51.8803 11.3433 51.9731 11.566C52.0721 11.7887 52.1215 12.0268 52.1215 12.2805V18.5064ZM45.3946 12.2805V18.5064H50.303V12.2805H45.3946ZM55.1742 14.0619H59.6186V15.8898H55.1742V14.0619ZM62.4764 10.4526H70.6508V10.9443L65.3899 18.5064H70.6508V20.3342H62.2908V19.8425L67.5518 12.2805H62.4764V10.4526ZM81.8685 18.5064C81.8685 18.76 81.8191 18.9981 81.7201 19.2208C81.6273 19.4435 81.4974 19.6383 81.3304 19.8054C81.1696 19.9662 80.9778 20.0961 80.7551 20.1951C80.5386 20.2878 80.3036 20.3342 80.05 20.3342H75.1416C74.8942 20.3342 74.6591 20.2878 74.4364 20.1951C74.2138 20.0961 74.0189 19.9662 73.8519 19.8054C73.6911 19.6383 73.5612 19.4435 73.4622 19.2208C73.3694 18.9981 73.323 18.76 73.323 18.5064V12.2805C73.323 12.0268 73.3694 11.7887 73.4622 11.566C73.5612 11.3433 73.6911 11.1516 73.8519 10.9907C74.0189 10.8237 74.2138 10.6938 74.4364 10.601C74.6591 10.5021 74.8942 10.4526 75.1416 10.4526H80.05C80.3036 10.4526 80.5386 10.5021 80.7551 10.601C80.9778 10.6938 81.1696 10.8237 81.3304 10.9907C81.4974 11.1516 81.6273 11.3433 81.7201 11.566C81.8191 11.7887 81.8685 12.0268 81.8685 12.2805V18.5064ZM75.1416 12.2805V18.5064H80.05V12.2805H75.1416ZM93.4667 18.5064C93.4667 18.76 93.4172 18.9981 93.3183 19.2208C93.2255 19.4435 93.0956 19.6383 92.9286 19.8054C92.7677 19.9662 92.576 20.0961 92.3533 20.1951C92.1368 20.2878 91.9017 20.3342 91.6481 20.3342H86.7398C86.4924 20.3342 86.2573 20.2878 86.0346 20.1951C85.8119 20.0961 85.6171 19.9662 85.4501 19.8054C85.2892 19.6383 85.1593 19.4435 85.0604 19.2208C84.9676 18.9981 84.9212 18.76 84.9212 18.5064V12.2805C84.9212 12.0268 84.9676 11.7887 85.0604 11.566C85.1593 11.3433 85.2892 11.1516 85.4501 10.9907C85.6171 10.8237 85.8119 10.6938 86.0346 10.601C86.2573 10.5021 86.4924 10.4526 86.7398 10.4526H91.6481C91.9017 10.4526 92.1368 10.5021 92.3533 10.601C92.576 10.6938 92.7677 10.8237 92.9286 10.9907C93.0956 11.1516 93.2255 11.3433 93.3183 11.566C93.4172 11.7887 93.4667 12.0268 93.4667 12.2805V18.5064ZM86.7398 12.2805V18.5064H91.6481V12.2805H86.7398ZM104.35 12.2805V20.3342H102.523V12.2805H98.338V20.3342H96.5194V10.4526H98.338V12.1969C98.3503 11.9557 98.406 11.7299 98.505 11.5196C98.6039 11.3031 98.7338 11.1175 98.8947 10.9629C99.0617 10.8021 99.2534 10.6784 99.4699 10.5918C99.6864 10.499 99.9184 10.4526 100.166 10.4526H102.523C102.764 10.4526 102.993 10.499 103.209 10.5918C103.426 10.6784 103.617 10.8021 103.784 10.9629C103.951 11.1175 104.084 11.3031 104.183 11.5196C104.289 11.7299 104.344 11.9557 104.35 12.1969C104.363 11.9557 104.415 11.7299 104.508 11.5196C104.607 11.3031 104.737 11.1175 104.898 10.9629C105.065 10.8021 105.257 10.6784 105.473 10.5918C105.69 10.499 105.922 10.4526 106.169 10.4526H108.526C108.779 10.4526 109.018 10.5021 109.24 10.601C109.463 10.6938 109.655 10.8237 109.816 10.9907C109.983 11.1516 110.112 11.3433 110.205 11.566C110.304 11.7887 110.354 12.0268 110.354 12.2805V20.3342H108.526V12.2805H104.35Z" fill="#0E0E0E" fill-opacity="0.7"/>
</g>
<defs>
<filter id="filter0_b_717_3575" x="-6.33415" y="-6.33415" width="132.668" height="41.172" filterUnits="userSpaceOnUse" color-interpolation-filters="sRGB">
<feFlood flood-opacity="0" result="BackgroundImageFix"/>
<feGaussianBlur in="BackgroundImageFix" stdDeviation="3.16707"/>
<feComposite in2="SourceAlpha" operator="in" result="effect1_backgroundBlur_717_3575"/>
<feBlend mode="normal" in="SourceGraphic" in2="effect1_backgroundBlur_717_3575" result="shape"/>
</filter>
</defs>
</svg>
